<?xml version="1.0" encoding="UTF-8"?>
<!DOCTYPE svg PUBLIC "-//W3C//DTD SVG 1.1//EN" "http://www.w3.org/Graphics/SVG/1.1/DTD/svg11.dtd">
<!-- Creator: CorelDRAW 2018 (评估版) -->
<svg xmlns="http://www.w3.org/2000/svg" xml:space="preserve" width="210mm" height="297mm" version="1.1" style="shape-rendering:geometricPrecision; text-rendering:geometricPrecision; image-rendering:optimizeQuality; fill-rule:evenodd; clip-rule:evenodd"
viewBox="0 0 21000 29700"
 xmlns:xlink="http://www.w3.org/1999/xlink">
 <defs>
  <style type="text/css">
   <![CDATA[
    .str4 {stroke:red;stroke-width:20;stroke-miterlimit:22.9256}
    .str1 {stroke:#332C2B;stroke-width:7.62;stroke-miterlimit:22.9256}
    .str0 {stroke:red;stroke-width:7.62;stroke-miterlimit:22.9256}
    .str3 {stroke:red;stroke-width:7.62;stroke-miterlimit:2.61313}
    .str2 {stroke:#FF001F;stroke-width:29.1;stroke-miterlimit:4}
    .fil0 {fill:none;fill-rule:nonzero}
    .fil1 {fill:white;fill-rule:nonzero}
   ]]>
  </style>
 </defs>
 <g id="图层_x0020_1">
  <metadata id="CorelCorpID_0Corel-Layer"/>
  <polygon class="fil0 str0" points="607.94,446.41 4607.94,446.41 4607.94,2446.41 607.94,2446.41 "/>
  <line class="fil0 str1" x1="1604.59" y1="2446.41" x2="1604.59" y2= "446.41" />
  <line class="fil0 str1" x1="3610.13" y1="2446.41" x2="3610.13" y2= "446.41" />
  <polygon class="fil1 str2" points="4122.43,1666.85 4122.43,1531.9 3987.53,1531.9 3987.53,1360.92 4122.43,1360.92 4122.43,1226.01 4293.31,1226.01 4293.31,1360.92 4428.36,1360.92 4428.36,1531.9 4293.31,1531.9 4293.31,1666.85 "/>
  <polygon class="fil1 str2" points="922.43,1666.82 922.43,1531.89 787.53,1531.89 787.53,1360.9 922.43,1360.9 922.43,1226 1093.31,1226 1093.31,1360.9 1228.36,1360.9 1228.36,1531.89 1093.31,1531.89 1093.31,1666.82 "/>
  <path class="fil0 str3" d="M2457.65 1446.39c0,-82.99 67.28,-150.29 150.3,-150.26 83.02,0 150.28,67.27 150.28,150.26 0,83.02 -67.26,150.33 -150.28,150.33 -83.02,0 -150.3,-67.31 -150.3,-150.33z"/>
  <polygon class="fil1 str2" points="6867.49,6412.87 6867.49,6280.59 6732.41,6280.59 6732.41,6109.59 6867.49,6109.59 6867.49,5971.91 7038.37,5971.91 7038.37,6109.59 7173.38,6109.59 7173.38,6280.59 7038.37,6280.59 7038.37,6412.87 "/>
  <polygon class="fil0 str4" points="7552.9,8362.13 546.94,8362.13 546.94,5488.9 7552.9,5488.9 "/>
  <path class="fil0 str3" d="M4049.92 6146.5c-83.02,0 -150.3,-67.29 -150.3,-150.33 0,-82.98 67.28,-150.28 150.3,-150.28 83.02,0 150.28,67.3 150.28,150.34 0,82.98 -67.26,150.27 -150.28,150.27z"/>
  <polygon class="fil0 str0" points="5202.23,6326.87 5202.23,7569.35 2897.61,7569.35 2897.61,6326.87 "/>
  <polygon class="fil0 str0" points="5202.23,6326.87 5202.23,7569.35 2897.61,7569.35 2897.61,6326.87 "/>
  <polygon class="fil1 str2" points="6867.48,8012.87 6867.48,7880.59 6732.4,7880.59 6732.4,7709.59 6867.48,7709.59 6867.48,7571.9 7038.36,7571.9 7038.36,7709.59 7173.37,7709.59 7173.37,7880.59 7038.36,7880.59 7038.36,8012.87 "/>
  <polygon class="fil1 str2" points="1061.54,8012.87 1061.54,7880.59 926.46,7880.59 926.46,7709.59 1061.54,7709.59 1061.54,7571.9 1232.42,7571.9 1232.42,7709.59 1367.43,7709.59 1367.43,7880.59 1232.42,7880.59 1232.42,8012.87 "/>
  <polygon class="fil1 str2" points="1061.55,6412.87 1061.55,6280.59 926.47,6280.59 926.47,6109.59 1061.55,6109.59 1061.55,5971.91 1232.43,5971.91 1232.43,6109.59 1367.44,6109.59 1367.44,6280.59 1232.43,6280.59 1232.43,6412.87 "/>
  <path class="fil0 str3" d="M3899.62 7980.16c0,-83 67.28,-150.29 150.3,-150.28 83.02,0 150.28,67.28 150.28,150.28 0,83.02 -67.26,150.32 -150.28,150.32 -83.02,0 -150.3,-67.3 -150.3,-150.32z"/>
  <polygon class="fil1 str2" points="1061.54,7212.87 1061.54,7080.57 926.46,7080.57 926.46,6909.59 1061.54,6909.59 1061.54,6771.9 1232.42,6771.9 1232.42,6909.59 1367.43,6909.59 1367.43,7080.57 1232.42,7080.57 1232.42,7212.87 "/>
  <polygon class="fil1 str2" points="6867.47,7212.89 6867.47,7080.59 6732.39,7080.59 6732.39,6909.61 6867.47,6909.61 6867.47,6771.91 7038.35,6771.91 7038.35,6909.61 7173.36,6909.61 7173.36,7080.59 7038.35,7080.59 7038.35,7212.89 "/>
  <path class="fil0 str0" d="M10604.41 8920.48c189.49,-413.36 606.88,-700.51 1091.36,-700.51 662.74,0 1199.99,537.26 1199.99,1200 0,662.74 -537.25,1200 -1199.99,1200 -484.48,0 -901.87,-287.15 -1091.36,-700.51l0 0.52 -108.65 0 -138.39 0 -9861.61 0 0 -1000 10000 0 0 0.37 108.65 0 0 0.13z"/>
  <path class="fil0 str3" d="M2948.74 3095.11c-83.02,0 -150.3,-67.29 -150.3,-150.31 0,-83 67.28,-150.3 150.3,-150.3 83.02,0 150.28,67.3 150.28,150.34 0,82.98 -67.26,150.27 -150.28,150.27z"/>
  <path class="fil0 str3" d="M2798.44 4928.79c0,-83.01 67.28,-150.29 150.3,-150.27 83.02,0 150.28,67.26 150.28,150.27 0,83.01 -67.26,150.31 -150.28,150.31 -83.02,0 -150.3,-67.3 -150.3,-150.31z"/>
  <path class="fil0 str3" d="M963.37 5226.01l3156.86 0c224.14,0 407.54,-183.38 407.54,-407.53l0 -1769.9c0,-224.16 -183.4,-407.59 -407.54,-407.59l-3156.86 0c-224.15,0 -407.55,183.43 -407.55,407.59l0 1769.9c0,224.15 183.4,407.53 407.55,407.53z"/>
  <polygon class="fil0 str3" points="1796.43,4517.98 1796.43,3275.5 4101.05,3275.5 4101.05,3646.23 4301.46,3646.23 4301.46,4147.22 4101.05,4147.22 4101.05,4517.98 "/>
  <polygon class="fil0 str3" points="1101.48,4297.55 800.87,4297.55 800.87,3495.92 1101.48,3495.92 "/>
  <path class="fil0 str3" d="M2948.74 3095.11c-83.02,0 -150.3,-67.29 -150.3,-150.31 0,-83 67.28,-150.3 150.3,-150.3 83.02,0 150.28,67.3 150.28,150.34 0,82.98 -67.26,150.27 -150.28,150.27z"/>
  <path class="fil0 str3" d="M2798.44 4928.79c0,-83.01 67.28,-150.29 150.3,-150.27 83.02,0 150.28,67.26 150.28,150.27 0,83.01 -67.26,150.31 -150.28,150.31 -83.02,0 -150.3,-67.3 -150.3,-150.31z"/>
 </g>
</svg>
